name rise31.4854peak64.571fall78.6902.mot
datacolumns 19
datarows 27
range 6.37497600000000 6.41830600000000
endheader
time	ground_force1_vx	ground_force1_vy	ground_force1_vz	ground_force1_px	ground_force1_py	ground_force1_pz	ground_force2_vx	ground_force2_vy	ground_force2_vz	ground_force2_px	ground_force2_py	ground_force2_pz	ground_torque1_x	ground_torque1_y	ground_torque1_z	ground_torque2_x	ground_torque2_y	ground_torque2_z	
6.37497600000000	75.15647400000000	807.14337300000000	53.74695800000000	0.33884200000000	0.00000000000000	0.09294500000000	0.00000000000000	0.00000000000000	0.00000000000000	0.00000000000000	0.00000000000000	0.00000000000000	0.00000000000000	21.67704300000000	0.00000000000000	0.00000000000000	0.00000000000000	0.00000000000000	
6.37664500000000	74.52719200000000	809.55515600000001	53.85069100000000	0.33805100000000	0.00000000000000	0.09292900000000	0.00000000000000	0.00000000000000	0.00000000000000	0.00000000000000	0.00000000000000	0.00000000000000	0.00000000000000	21.72644100000000	0.00000000000000	0.00000000000000	0.00000000000000	0.00000000000000	
6.37831500000000	73.88584800000000	811.77730399999996	53.94875500000000	0.33728700000000	0.00000000000000	0.09291300000000	0.00000000000000	0.00000000000000	0.00000000000000	0.00000000000000	0.00000000000000	0.00000000000000	0.00000000000000	21.77605700000000	0.00000000000000	0.00000000000000	0.00000000000000	0.00000000000000	
6.37997800000000	73.23276600000000	813.80745600000000	54.04099400000000	0.33654700000000	0.00000000000000	0.09289600000000	0.00000000000000	0.00000000000000	0.00000000000000	0.00000000000000	0.00000000000000	0.00000000000000	0.00000000000000	21.82573800000000	0.00000000000000	0.00000000000000	0.00000000000000	0.00000000000000	
6.38164300000000	72.56824100000000	815.64359100000001	54.12720700000000	0.33583100000000	0.00000000000000	0.09287900000000	0.00000000000000	0.00000000000000	0.00000000000000	0.00000000000000	0.00000000000000	0.00000000000000	0.00000000000000	21.87529600000000	0.00000000000000	0.00000000000000	0.00000000000000	0.00000000000000	
6.38331300000000	71.89253900000000	817.28404200000000	54.20715000000000	0.33513500000000	0.00000000000000	0.09286200000000	0.00000000000000	0.00000000000000	0.00000000000000	0.00000000000000	0.00000000000000	0.00000000000000	0.00000000000000	21.92450300000000	0.00000000000000	0.00000000000000	0.00000000000000	0.00000000000000	
6.38497700000000	71.20590199999999	818.72750799999994	54.28053900000000	0.33445800000000	0.00000000000000	0.09284400000000	0.00000000000000	0.00000000000000	0.00000000000000	0.00000000000000	0.00000000000000	0.00000000000000	0.00000000000000	21.97310000000000	0.00000000000000	0.00000000000000	0.00000000000000	0.00000000000000	
6.38664300000000	70.50855100000000	819.97307000000001	54.34705600000000	0.33379700000000	0.00000000000000	0.09282600000000	0.00000000000000	0.00000000000000	0.00000000000000	0.00000000000000	0.00000000000000	0.00000000000000	0.00000000000000	22.02080000000000	0.00000000000000	0.00000000000000	0.00000000000000	0.00000000000000	
6.38831000000000	69.80069000000000	821.02020000000005	54.40635600000000	0.33315000000000	0.00000000000000	0.09280700000000	0.00000000000000	0.00000000000000	0.00000000000000	0.00000000000000	0.00000000000000	0.00000000000000	0.00000000000000	22.06728600000000	0.00000000000000	0.00000000000000	0.00000000000000	0.00000000000000	
6.38998200000000	69.08251000000000	821.86876900000004	54.45806600000000	0.33251500000000	0.00000000000000	0.09278900000000	0.00000000000000	0.00000000000000	0.00000000000000	0.00000000000000	0.00000000000000	0.00000000000000	0.00000000000000	22.11222100000000	0.00000000000000	0.00000000000000	0.00000000000000	0.00000000000000	
6.39164000000000	68.35419200000000	822.51905499999998	54.50179800000000	0.33188800000000	0.00000000000000	0.09277100000000	0.00000000000000	0.00000000000000	0.00000000000000	0.00000000000000	0.00000000000000	0.00000000000000	0.00000000000000	22.15524800000000	0.00000000000000	0.00000000000000	0.00000000000000	0.00000000000000	
6.39330800000000	67.61591100000000	822.97174700000005	54.53714700000000	0.33126800000000	0.00000000000000	0.09275200000000	0.00000000000000	0.00000000000000	0.00000000000000	0.00000000000000	0.00000000000000	0.00000000000000	0.00000000000000	22.19599300000000	0.00000000000000	0.00000000000000	0.00000000000000	0.00000000000000	
6.39497400000000	66.86784200000000	823.22795099999996	54.56370200000000	0.33065100000000	0.00000000000000	0.09273400000000	0.00000000000000	0.00000000000000	0.00000000000000	0.00000000000000	0.00000000000000	0.00000000000000	0.00000000000000	22.23407300000000	0.00000000000000	0.00000000000000	0.00000000000000	0.00000000000000	
6.39664400000000	66.11015700000000	823.28918699999997	54.58104700000000	0.33003400000000	0.00000000000000	0.09271600000000	0.00000000000000	0.00000000000000	0.00000000000000	0.00000000000000	0.00000000000000	0.00000000000000	0.00000000000000	22.26909400000000	0.00000000000000	0.00000000000000	0.00000000000000	0.00000000000000	
6.39830800000000	65.34303900000000	823.15739099999996	54.58876800000000	0.32941600000000	0.00000000000000	0.09269800000000	0.00000000000000	0.00000000000000	0.00000000000000	0.00000000000000	0.00000000000000	0.00000000000000	0.00000000000000	22.30065600000000	0.00000000000000	0.00000000000000	0.00000000000000	0.00000000000000	
6.39998000000000	64.56667400000001	822.83491100000003	54.58645700000000	0.32879300000000	0.00000000000000	0.09268100000000	0.00000000000000	0.00000000000000	0.00000000000000	0.00000000000000	0.00000000000000	0.00000000000000	0.00000000000000	22.32836200000000	0.00000000000000	0.00000000000000	0.00000000000000	0.00000000000000	
6.40164200000000	63.78126300000000	822.32450400000005	54.57371800000000	0.32816300000000	0.00000000000000	0.09266500000000	0.00000000000000	0.00000000000000	0.00000000000000	0.00000000000000	0.00000000000000	0.00000000000000	0.00000000000000	22.35181300000000	0.00000000000000	0.00000000000000	0.00000000000000	0.00000000000000	
6.40332600000000	62.98702000000000	821.62932899999998	54.55017200000000	0.32752200000000	0.00000000000000	0.09264900000000	0.00000000000000	0.00000000000000	0.00000000000000	0.00000000000000	0.00000000000000	0.00000000000000	0.00000000000000	22.37062000000000	0.00000000000000	0.00000000000000	0.00000000000000	0.00000000000000	
6.40498200000000	62.18417900000000	820.75293699999997	54.51546100000000	0.32686800000000	0.00000000000000	0.09263300000000	0.00000000000000	0.00000000000000	0.00000000000000	0.00000000000000	0.00000000000000	0.00000000000000	0.00000000000000	22.38439900000000	0.00000000000000	0.00000000000000	0.00000000000000	0.00000000000000	
6.40664500000000	61.37299200000000	819.69926599999997	54.46924900000000	0.32619900000000	0.00000000000000	0.09261900000000	0.00000000000000	0.00000000000000	0.00000000000000	0.00000000000000	0.00000000000000	0.00000000000000	0.00000000000000	22.39278200000000	0.00000000000000	0.00000000000000	0.00000000000000	0.00000000000000	
6.40830700000000	60.55373500000000	818.47262599999999	54.41123200000000	0.32551100000000	0.00000000000000	0.09260500000000	0.00000000000000	0.00000000000000	0.00000000000000	0.00000000000000	0.00000000000000	0.00000000000000	0.00000000000000	22.39541700000000	0.00000000000000	0.00000000000000	0.00000000000000	0.00000000000000	
6.40997700000000	59.72671000000000	817.07768299999998	54.34113900000000	0.32480100000000	0.00000000000000	0.09259200000000	0.00000000000000	0.00000000000000	0.00000000000000	0.00000000000000	0.00000000000000	0.00000000000000	0.00000000000000	22.39196900000000	0.00000000000000	0.00000000000000	0.00000000000000	0.00000000000000	
6.41164800000000	58.89224400000000	815.51945300000000	54.25873200000000	0.32406900000000	0.00000000000000	0.09258100000000	0.00000000000000	0.00000000000000	0.00000000000000	0.00000000000000	0.00000000000000	0.00000000000000	0.00000000000000	22.38212600000000	0.00000000000000	0.00000000000000	0.00000000000000	0.00000000000000	
6.41331500000000	58.05069400000000	813.80327899999997	54.16381700000000	0.32330900000000	0.00000000000000	0.09257000000000	0.00000000000000	0.00000000000000	0.00000000000000	0.00000000000000	0.00000000000000	0.00000000000000	0.00000000000000	22.36560000000000	0.00000000000000	0.00000000000000	0.00000000000000	0.00000000000000	
6.41498000000000	57.20244800000000	811.93481399999996	54.05623900000000	0.32252100000000	0.00000000000000	0.09256100000000	0.00000000000000	0.00000000000000	0.00000000000000	0.00000000000000	0.00000000000000	0.00000000000000	0.00000000000000	22.34213300000000	0.00000000000000	0.00000000000000	0.00000000000000	0.00000000000000	
6.41664300000000	56.34792400000000	809.92000800000005	53.93588700000000	0.32170300000000	0.00000000000000	0.09255300000000	0.00000000000000	0.00000000000000	0.00000000000000	0.00000000000000	0.00000000000000	0.00000000000000	0.00000000000000	22.31149200000000	0.00000000000000	0.00000000000000	0.00000000000000	0.00000000000000	
6.41830600000000	55.48757200000000	807.76508400000000	53.80269900000000	0.32085100000000	0.00000000000000	0.09254600000000	0.00000000000000	0.00000000000000	0.00000000000000	0.00000000000000	0.00000000000000	0.00000000000000	0.00000000000000	22.27347800000000	0.00000000000000	0.00000000000000	0.00000000000000	0.00000000000000	
